<svg width="512" height="512" viewBox="0 0 512 512" xmlns="http://www.w3.org/2000/svg">
  <!-- Rounded square background -->
  <rect x="16" y="16" width="480" height="480" rx="110" fill="#10b981"/>
  <g fill="none" stroke="#FFFFFF" stroke-linecap="round" stroke-linejoin="round">
    <!-- Main upward arrow -->
    <path d="M256 385 C256 325, 256 305, 270 280 C285 253, 320 235, 360 235" stroke-width="16"/>
    <path d="M360 235 L334 210 M360 235 L340 260" stroke-width="16"/>
    <!-- Left leaf -->
    <path d="M226 305 C180 300, 156 270, 150 235 C210 230, 242 260, 226 305 Z" fill="#FFFFFF" stroke="none"/>
    <!-- Right leaf -->
    <path d="M279 305 C325 300, 349 270, 355 235 C295 230, 263 260, 279 305 Z" fill="#FFFFFF" stroke="none"/>
    <!-- Growth curve -->
    <path d="M180 395 Q256 420 332 395" stroke-width="10" opacity="0.9"/>
  </g>
</svg>