<svg width="192" height="192" viewBox="0 0 192 192" xmlns="http://www.w3.org/2000/svg">
  <defs>
    <linearGradient id="bgGradient" x1="0%" y1="0%" x2="100%" y2="100%">
      <stop offset="0%" style="stop-color:#22c55e" />
      <stop offset="100%" style="stop-color:#16a34a" />
    </linearGradient>
  </defs>
  
  <!-- Rounded square background -->
  <rect x="16" y="16" width="160" height="160" rx="32" fill="url(#bgGradient)" />
  
  <!-- Modern leaf design -->
  <g transform="translate(96, 96)">
    <!-- Main leaf body -->
    <path d="M0,-40 Q20,-35 30,-15 Q35,0 30,15 Q20,35 0,40 Q-20,35 -30,15 Q-35,0 -30,-15 Q-20,-35 0,-40 Z" fill="white"/>
    
    <!-- Stem -->
    <rect x="-2" y="40" width="4" height="20" rx="2" fill="white"/>
    
    <!-- Central vein -->
    <path d="M0,-35 Q0,0 0,38" stroke="#16a34a" stroke-width="2" fill="none" opacity="0.6"/>
    
    <!-- Left side veins -->
    <path d="M0,-20 Q-15,-10 -22,5" stroke="#16a34a" stroke-width="1.5" fill="none" opacity="0.4"/>
    <path d="M0,-5 Q-18,8 -25,25" stroke="#16a34a" stroke-width="1.5" fill="none" opacity="0.4"/>
    
    <!-- Right side veins -->
    <path d="M0,-20 Q15,-10 22,5" stroke="#16a34a" stroke-width="1.5" fill="none" opacity="0.4"/>
    <path d="M0,-5 Q18,8 25,25" stroke="#16a34a" stroke-width="1.5" fill="none" opacity="0.4"/>
  </g>
</svg>