<svg width="512" height="512" viewBox="0 0 512 512" xmlns="http://www.w3.org/2000/svg">
  <defs>
    <linearGradient id="greenGradient" x1="0%" y1="0%" x2="100%" y2="100%">
      <stop offset="0%" style="stop-color:#22c55e" />
      <stop offset="100%" style="stop-color:#16a34a" />
    </linearGradient>
  </defs>
  
  <!-- Rounded background -->
  <rect x="32" y="32" width="448" height="448" rx="88" fill="url(#greenGradient)" />
  
  <!-- White leaf icon centered (scaled up 2.67x from 192px) -->
  <g transform="translate(256, 256)">
    <!-- Leaf shape - classic leaf with pointed tip -->
    <path d="M0,-93.3 C40,-80 66.7,-40 66.7,0 C66.7,40 40,66.7 0,80 C-40,66.7 -66.7,40 -66.7,0 C-66.7,-40 -40,-80 0,-93.3 Z" fill="white"/>
    <!-- Leaf stem -->
    <rect x="-4" y="80" width="8" height="40" fill="white"/>
    <!-- Central vein -->
    <line x1="0" y1="-85.3" x2="0" y2="74.7" stroke="#22c55e" stroke-width="4" opacity="0.4"/>
    <!-- Side veins -->
    <path d="M0,-40 Q-32,-21.3 -48,0" stroke="#22c55e" stroke-width="2.7" fill="none" opacity="0.3"/>
    <path d="M0,-40 Q32,-21.3 48,0" stroke="#22c55e" stroke-width="2.7" fill="none" opacity="0.3"/>
    <path d="M0,0 Q-26.7,21.3 -40,40" stroke="#22c55e" stroke-width="2.7" fill="none" opacity="0.3"/>
    <path d="M0,0 Q26.7,21.3 40,40" stroke="#22c55e" stroke-width="2.7" fill="none" opacity="0.3"/>
  </g>
</svg>