<svg width="512" height="512" viewBox="0 0 512 512" fill="none" xmlns="http://www.w3.org/2000/svg">
  <defs>
    <linearGradient id="greenGradient" x1="0%" y1="0%" x2="100%" y2="100%">
      <stop offset="0%" style="stop-color:#22c55e;stop-opacity:1" />
      <stop offset="100%" style="stop-color:#16a34a;stop-opacity:1" />
    </linearGradient>
  </defs>
  
  <!-- Rounded square background with green gradient -->
  <rect x="32" y="32" width="448" height="448" rx="88" ry="88" fill="url(#greenGradient)" />
  
  <!-- White leaf icon centered -->
  <g transform="translate(256, 256)">
    <!-- Leaf shape -->
    <path d="M-40,-60 C-20,-80 20,-80 40,-60 C60,-20 60,20 40,60 C20,80 -20,80 -40,60 C-60,40 -60,-40 -40,-60 Z M-20,-40 C0,-50 20,-40 30,-20 C40,0 30,20 20,40 C0,50 -20,40 -30,20 C-40,0 -30,-20 -20,-40 Z" fill="white" fill-rule="evenodd"/>
    <!-- Leaf stem -->
    <rect x="-3" y="60" width="6" height="40" fill="white"/>
    <!-- Leaf vein -->
    <path d="M-30,-30 L30,30" stroke="#22c55e" stroke-width="3" fill="none" opacity="0.4"/>
    <path d="M-15,-45 L15,15" stroke="#22c55e" stroke-width="2" fill="none" opacity="0.3"/>
    <path d="M15,-15 L-15,45" stroke="#22c55e" stroke-width="2" fill="none" opacity="0.3"/>
  </g>
</svg>