<svg width="192" height="192" viewBox="0 0 192 192" fill="none" xmlns="http://www.w3.org/2000/svg">
  <defs>
    <linearGradient id="greenGradient" x1="0%" y1="0%" x2="100%" y2="100%">
      <stop offset="0%" style="stop-color:#22c55e;stop-opacity:1" />
      <stop offset="100%" style="stop-color:#16a34a;stop-opacity:1" />
    </linearGradient>
  </defs>
  
  <!-- Rounded square background with green gradient -->
  <rect x="16" y="16" width="160" height="160" rx="32" ry="32" fill="url(#greenGradient)" />
  
  <!-- White leaf icon centered -->
  <g transform="translate(96, 96)">
    <!-- Leaf shape -->
    <path d="M-20,-30 C-10,-40 10,-40 20,-30 C30,-10 30,10 20,30 C10,40 -10,40 -20,30 C-30,20 -30,-20 -20,-30 Z M-10,-20 C0,-25 10,-20 15,-10 C20,0 15,10 10,20 C0,25 -10,20 -15,10 C-20,0 -15,-10 -10,-20 Z" fill="white" fill-rule="evenodd"/>
    <!-- Leaf stem -->
    <rect x="-1.5" y="30" width="3" height="20" fill="white"/>
    <!-- Leaf vein -->
    <path d="M-15,-15 L15,15" stroke="#22c55e" stroke-width="1.5" fill="none" opacity="0.4"/>
    <path d="M-7.5,-22.5 L7.5,7.5" stroke="#22c55e" stroke-width="1" fill="none" opacity="0.3"/>
    <path d="M7.5,-7.5 L-7.5,22.5" stroke="#22c55e" stroke-width="1" fill="none" opacity="0.3"/>
  </g>
</svg>